<?xml version="1.0" encoding="utf-8"?><svg xml:space="preserve" viewBox="0 0 100 100" y="0" x="0" xmlns="http://www.w3.org/2000/svg" id="圖層_1" version="1.1" width="200px" height="200px" xmlns:xlink="http://www.w3.org/1999/xlink" style="width:100%;height:100%;background-size:initial;background-repeat-y:initial;background-repeat-x:initial;background-position-y:initial;background-position-x:initial;background-origin:initial;background-image:initial;background-color:rgb(255, 255, 255);background-clip:initial;background-attachment:initial;animation-play-state:paused" ><g class="ldl-scale" style="transform-origin:50% 50%;transform:rotate(0deg) scale(0.8, 0.8);animation-play-state:paused" ><circle fill="#a8a8a8" r="32.5" cy="50" cx="50" style="fill:rgb(168, 168, 168);animation-play-state:paused" ></circle>
<path fill="#e0e0e0" d="M23.2 49c1.2-4 5.2-6.5 7.3-10.1.4-.6.7-1.4.5-2.1-.3-1.3-2-1.6-3-2.6-2.2-2.1.3-5.6.6-8.7-6.8 6-11.1 14.7-11.1 24.5 0 5.6 1.4 10.8 3.9 15.4.9-1.9 1.5-3.8 1.7-5.9.2-3.5-1-7.2.1-10.5z" style="fill:rgb(224, 224, 224);animation-play-state:paused" ></path>
<path fill="#a8a8a8" d="M29.7 67.1c1.8-1.4 1.8-4 1.9-6.2.2-4.4 1.6-9.5 5.6-11.2 1.2-.5 2.8-.9 3.2-2.2.2-.9-.3-1.9-.5-2.8-.5-2.9 2.7-4.9 5.4-6.1 2.1-.9 4.2-1.9 6.3-2.8 1.7-.8 3.8-1.5 5.4-.5 1.5.9 2.1 3 3.8 3.5 1.2.3 2.3-.3 3.3-1 3.9-2.5 7.2-5.8 10-9.5-5.9-6.6-14.5-10.8-24.1-10.8-8.2 0-15.7 3-21.4 8-.3 3-2.8 6.6-.6 8.7 1 .9 2.7 1.3 3 2.6.2.7-.1 1.4-.5 2.1-2.1 3.6-6.1 6.1-7.3 10.1-1 3.4.1 7-.1 10.5-.1 2.1-.8 4-1.7 5.9.8 1.4 1.6 2.7 2.6 4 .5-.3 1-.6 1.5-.8 1.4-.5 3-.6 4.2-1.5z" style="fill:rgb(168, 168, 168);animation-play-state:paused" ></path>
<path fill="#e0e0e0" d="M64.2 37.7c-1 .7-2.2 1.3-3.3 1-1.7-.4-2.3-2.6-3.8-3.5-1.6-1-3.7-.2-5.4.5-2.1.9-4.2 1.9-6.3 2.8-2.7 1.2-5.9 3.2-5.4 6.1.2.9.7 1.9.5 2.8-.3 1.3-1.9 1.7-3.2 2.2-4.1 1.7-5.5 6.8-5.6 11.2-.1 2.2-.1 4.8-1.9 6.2-1.2.9-2.8 1-4.2 1.5-.5.2-1.1.5-1.5.8 5.9 7.9 15.4 13.1 26.1 13.1 17.9 0 32.5-14.6 32.5-32.5 0-8.4-3.2-16-8.3-21.7-3 3.8-6.4 7-10.2 9.5z" style="fill:rgb(224, 224, 224);animation-play-state:paused" ></path>
<g style="animation-play-state:paused" ><path fill="#ccc" d="M55.6 74.7c-2.8 0-5-1.1-5.9-3-.8-1.6-.7-3.5.3-5.4 1-2 2.8-3.7 5.1-4.9 1.8-.9 3.7-1.4 5.5-1.4 2.8 0 5 1.1 5.9 3 1.7 3.3-.8 7.9-5.4 10.2-1.8 1-3.7 1.5-5.5 1.5z" style="fill:rgb(204, 204, 204);animation-play-state:paused" ></path>
<path fill="#999" d="M60.6 60.5c2.6 0 4.6 1 5.5 2.8 1.6 3-.8 7.4-5.2 9.6-1.7.9-3.6 1.4-5.3 1.4-2.6 0-4.6-1-5.5-2.8-1.6-3 .8-7.4 5.2-9.6 1.7-.9 3.5-1.4 5.3-1.4m0-.9c-1.8 0-3.8.5-5.7 1.5-4.9 2.5-7.4 7.4-5.6 10.8 1.1 2.1 3.5 3.3 6.3 3.3 1.8 0 3.8-.5 5.7-1.5 4.9-2.5 7.4-7.4 5.6-10.8-1.1-2.1-3.5-3.3-6.3-3.3z" style="fill:rgb(153, 153, 153);animation-play-state:paused" ></path></g>
<g style="animation-play-state:paused" ><path fill="#999" d="M54.3 61.4l-1-3.5 2.2 2.9c.2.3.2.7-.1 1s-.7.2-1-.1c-.1-.2-.1-.2-.1-.3z" style="fill:rgb(153, 153, 153);animation-play-state:paused" ></path></g>
<g style="animation-play-state:paused" ><path fill="#999" d="M50.6 64.8l-3.4-2.2 3.9 1c.4.1.6.5.5.8-.1.4-.5.6-.8.5-.1 0-.1-.1-.2-.1z" style="fill:rgb(153, 153, 153);animation-play-state:paused" ></path></g>
<g style="animation-play-state:paused" ><path fill="#999" d="M48.9 68.8l-4.7-.3 4.6-1.1c.4-.1.7.1.8.5.1.4-.1.7-.5.8-.1.1-.1.1-.2.1z" style="fill:rgb(153, 153, 153);animation-play-state:paused" ></path></g>
<g style="animation-play-state:paused" ><path fill="#999" d="M49.6 72.5l-4.8 1.7 4.2-2.9c.3-.2.7-.1.9.2.2.3.1.7-.2.9 0 .1-.1.1-.1.1z" style="fill:rgb(153, 153, 153);animation-play-state:paused" ></path></g>
<g style="animation-play-state:paused" ><path fill="#999" d="M52.6 74.9L49 78.1l2.5-4c.2-.3.6-.4.9-.2s.4.6.2.9c.1 0 0 .1 0 .1z" style="fill:rgb(153, 153, 153);animation-play-state:paused" ></path></g>
<g style="animation-play-state:paused" ><path fill="#999" d="M57.2 75.3L55.7 79l.2-4.1c0-.4.3-.7.7-.7s.7.3.7.7c-.1.2-.1.3-.1.4z" style="fill:rgb(153, 153, 153);animation-play-state:paused" ></path></g>
<g style="animation-play-state:paused" ><path fill="#999" d="M61.9 73.4l1 3.5-2.2-2.9c-.2-.3-.2-.7.1-1 .3-.2.7-.2 1 .1.1.2.1.2.1.3z" style="fill:rgb(153, 153, 153);animation-play-state:paused" ></path></g>
<g style="animation-play-state:paused" ><path fill="#999" d="M65.6 70l3.4 2.2-3.9-1c-.4-.1-.6-.5-.5-.8s.5-.6.8-.5c.1 0 .1.1.2.1z" style="fill:rgb(153, 153, 153);animation-play-state:paused" ></path></g>
<g style="animation-play-state:paused" ><path fill="#999" d="M67.3 66l4.7.3-4.6 1.1c-.4.1-.7-.1-.8-.5-.1-.4.1-.7.5-.8.1-.1.1-.1.2-.1z" style="fill:rgb(153, 153, 153);animation-play-state:paused" ></path></g>
<g style="animation-play-state:paused" ><path fill="#999" d="M66.6 62.3l4.8-1.7-4.2 2.9c-.3.2-.7.1-.9-.2s-.1-.7.2-.9c0-.1.1-.1.1-.1z" style="fill:rgb(153, 153, 153);animation-play-state:paused" ></path></g>
<g style="animation-play-state:paused" ><path fill="#999" d="M63.6 59.9l3.6-3.1-2.5 4c-.2.3-.6.4-.9.2s-.4-.6-.2-.9c-.1-.1 0-.2 0-.2z" style="fill:rgb(153, 153, 153);animation-play-state:paused" ></path></g>
<g style="animation-play-state:paused" ><path fill="#999" d="M59.1 59.5l1.5-3.8-.2 4.1c0 .4-.3.7-.7.7-.4 0-.7-.3-.7-.7 0-.1 0-.2.1-.3z" style="fill:rgb(153, 153, 153);animation-play-state:paused" ></path></g>
<metadata xmlns:d="https://loading.io/stock/" style="animation-play-state:paused" ><d:name style="animation-play-state:paused" >moon</d:name>


<d:tags style="animation-play-state:paused" >star,solar system,planet,moon,astrology</d:tags>


<d:license style="animation-play-state:paused" >by</d:license>


<d:slug style="animation-play-state:paused" >t5r8c8</d:slug></metadata></g><!-- generated by https://loading.io/ --></svg>